<svg width="45" height="58" viewBox="0 0 45 58" fill="none" xmlns="http://www.w3.org/2000/svg">
<path fill-rule="evenodd" clip-rule="evenodd" d="M24.1676 1.6405C28.446 -1.3388 28.769 4.55853 32.9724 0.876822V6.88729C28.9609 10.5171 28.0855 4.6481 24.1676 7.63212V1.6405ZM22.1361 0H22.7867C22.9432 0 23.0932 0.0625794 23.2038 0.173972C23.3144 0.285364 23.3765 0.436444 23.3765 0.593976V9.37162C23.3811 9.41392 23.3811 9.4566 23.3765 9.4989L34.3767 15.8582V21.2134H41.2436C42.2198 21.2109 43.1571 21.5987 43.8496 22.2917C44.5421 22.9847 44.9331 23.9261 44.9369 24.9093V57.0783C44.9369 57.3033 44.8481 57.5191 44.6901 57.6783C44.5321 57.8374 44.3178 57.9268 44.0943 57.9268H0.842566C0.619483 57.9256 0.405886 57.8358 0.24814 57.6769C0.0903939 57.518 0.00122916 57.3029 2.52762e-08 57.0783V24.9093C-5.67271e-05 24.4229 0.0954562 23.9413 0.281035 23.4923C0.466614 23.0433 0.738591 22.6357 1.08129 22.293C1.77102 21.6006 2.70541 21.2124 3.67921 21.2134H10.5508V15.8582L21.5603 9.4989C21.5552 9.45663 21.5552 9.41389 21.5603 9.37162V0.593976C21.5615 0.439224 21.6221 0.290926 21.7294 0.180187C21.8367 0.069447 21.9825 0.00487 22.1361 0ZM21.5931 14.0244C21.607 13.8584 21.6823 13.7037 21.8041 13.591C21.9259 13.4782 22.0853 13.4157 22.2508 13.4157C22.4162 13.4157 22.5756 13.4782 22.6974 13.591C22.8192 13.7037 22.8945 13.8584 22.9084 14.0244V16.5795H24.7808C24.9565 16.5757 25.1264 16.6424 25.2533 16.7648C25.3801 16.8873 25.4535 17.0555 25.4572 17.2324C25.4609 17.4093 25.3947 17.5804 25.2731 17.7082C25.1516 17.8359 24.9846 17.9098 24.8089 17.9136H22.2484C22.0742 17.9123 21.9075 17.8417 21.7848 17.7172C21.662 17.5927 21.5931 17.4243 21.5931 17.2489V14.0244ZM22.4684 11.9927C23.352 11.9945 24.2151 12.26 24.9489 12.7556C25.6827 13.2512 26.2543 13.9547 26.5913 14.7772C26.9284 15.5997 27.0158 16.5044 26.8427 17.3769C26.6695 18.2495 26.2435 19.0508 25.6184 19.6796C24.9933 20.3085 24.1972 20.7367 23.3306 20.9102C22.464 21.0837 21.5658 20.9946 20.7495 20.6543C19.9331 20.314 19.2351 19.7377 18.7438 18.9982C18.2524 18.2587 17.9897 17.3891 17.9888 16.4993C17.9876 15.9068 18.1026 15.3198 18.3274 14.7721C18.5521 14.2245 18.8821 13.727 19.2984 13.3082C19.7147 12.8894 20.209 12.5576 20.753 12.3318C21.2971 12.1061 21.88 11.9908 22.4684 11.9927ZM16.8747 56.1826V56.225H28.0528V41.9554C28.0802 40.3499 27.4994 38.7941 26.4285 37.6043C25.9154 37.0675 25.2999 36.6405 24.6191 36.3488C23.9383 36.0571 23.206 35.9068 22.4661 35.9068C21.7262 35.9068 20.9939 36.0571 20.3131 36.3488C19.6322 36.6405 19.0168 37.0675 18.5037 37.6043C17.4311 38.7933 16.8486 40.3492 16.8747 41.9554V56.1873V56.1826ZM15.1849 56.225V41.9554C15.1587 39.9164 15.9053 37.944 17.2726 36.44C17.9423 35.733 18.7474 35.1702 19.6393 34.7857C20.5312 34.4012 21.4912 34.203 22.4614 34.203C23.4316 34.203 24.3917 34.4012 25.2835 34.7857C26.1754 35.1702 26.9806 35.733 27.6502 36.44C29.0176 37.944 29.7641 39.9164 29.7379 41.9554V56.2297H43.2377V24.9093C43.234 24.3778 43.0227 23.8692 42.6496 23.4934C42.2764 23.1175 41.7713 22.9048 41.2436 22.9011H3.67921C3.41812 22.9012 3.15963 22.9533 2.91863 23.0545C2.67763 23.1556 2.45886 23.3037 2.27493 23.4903C2.09006 23.6756 1.94356 23.8961 1.84392 24.1388C1.74428 24.3816 1.69349 24.6419 1.69449 24.9046V56.2203L15.1849 56.225ZM4.05368 49.7148H7.61586V52.5056H4.05368V49.7148ZM4.05368 43.9448H7.61586V46.7355H4.05368V43.9448ZM4.05368 38.1842H7.61586V40.9749H4.05368V38.1842ZM9.56781 49.729H13.1347V52.5197H9.56781V49.729ZM9.56781 43.9589H13.1347V46.7497H9.56781V43.9448V43.9589ZM9.56781 38.1842H13.1347V40.9749H9.56781V38.1842ZM31.7882 49.729H35.355V52.5197H31.7882V49.729ZM31.7882 43.9589H35.355V46.7497H31.7882V43.9448V43.9589ZM31.7882 38.1842H35.355V40.9749H31.7882V38.1842ZM37.307 49.7148H40.8738V52.5056H37.307V49.7148ZM37.307 43.9448H40.8738V46.7355H37.307V43.9448ZM37.307 38.1842H40.8738V40.9749H37.307V38.1842ZM9.87207 28.1431C9.02482 28.0536 8.40694 28.0064 8.0231 28.0064C7.79789 27.9951 7.57211 28.0062 7.34905 28.0394C7.32015 28.0462 7.2947 28.0633 7.27746 28.0876C7.26022 28.1119 7.25239 28.1417 7.25543 28.1714C7.25626 28.2046 7.26697 28.2367 7.28618 28.2636C7.30538 28.2905 7.33218 28.3109 7.36309 28.3223C7.58552 28.4023 7.81409 28.4638 8.04651 28.5061C8.42566 28.591 8.73928 28.6758 8.98269 28.756C9.21949 28.8345 9.4423 28.9507 9.6427 29.1001C9.82767 29.2351 9.96403 29.4271 10.0312 29.6469C10.101 29.9305 10.1325 30.2223 10.1248 30.5143C10.1546 30.8102 10.1164 31.1091 10.0134 31.3878C9.9103 31.6665 9.74505 31.9176 9.53036 32.1218C9.00056 32.4773 8.36756 32.6433 7.73289 32.5933C7.32782 32.5957 6.92297 32.5737 6.52053 32.5273C6.09924 32.4707 5.77158 32.4188 5.54221 32.3623L5.19114 32.2821L5.28008 30.6746C6.02994 30.7923 6.78687 30.8584 7.54565 30.8726C7.85927 30.8726 8.01374 30.8019 8.01374 30.6652C8.01374 30.6039 7.97629 30.5615 7.90608 30.5332C7.71431 30.48 7.51866 30.4422 7.32096 30.42C6.70769 30.3676 6.11946 30.1512 5.61711 29.7931C5.44756 29.6076 5.31835 29.3885 5.23774 29.1499C5.15714 28.9112 5.12691 28.6582 5.14902 28.4071C5.14902 27.5869 5.34561 27.0259 5.73413 26.7242C6.27039 26.3755 6.90402 26.2101 7.54097 26.2528C8.21505 26.2612 8.88767 26.318 9.55376 26.4225L9.93292 26.4885L9.87675 28.1243L9.87207 28.1431ZM15.3815 32.3575C14.7414 32.5168 14.0842 32.5959 13.4249 32.5933C12.8961 32.6221 12.3682 32.5236 11.8849 32.3057C11.5126 32.1056 11.2322 31.7675 11.1031 31.3629C10.9198 30.7359 10.8392 30.0831 10.8644 29.4301C10.8644 28.2233 11.0485 27.3967 11.4168 26.9505C11.7866 26.5074 12.4934 26.2858 13.5325 26.2858C14.0489 26.2958 14.563 26.3558 15.0679 26.4649L15.3815 26.5309L15.33 28.1573C14.8766 28.0995 14.4202 28.0695 13.9632 28.0677C13.5419 28.0677 13.2751 28.1479 13.1534 28.3081C13.0037 28.6167 12.9421 28.9611 12.9755 29.3028C12.9613 29.6522 12.9896 30.0021 13.0598 30.3446C13.076 30.4251 13.109 30.5011 13.1566 30.5678C13.2042 30.6344 13.2654 30.6901 13.3359 30.7312C13.5311 30.8073 13.7404 30.8395 13.9492 30.8255L15.3534 30.7736V32.3717L15.3815 32.3575ZM19.5382 32.4754V30.3493H18.3586V32.4754H16.2662V26.3989H18.3586V28.6428H19.5382V26.3989H21.6352V32.4754H19.5382ZM24.6451 29.4301C24.6296 29.8096 24.6852 30.1886 24.8089 30.5473C24.8768 30.6504 24.9689 30.735 25.0772 30.7934C25.1854 30.8519 25.3063 30.8825 25.4291 30.8825C25.5519 30.8825 25.6728 30.8519 25.7811 30.7934C25.8893 30.735 25.9814 30.6504 26.0493 30.5473C26.1646 30.1852 26.2137 29.8051 26.1944 29.4254C26.2155 29.0459 26.1679 28.6658 26.054 28.3034C25.9978 28.1906 25.9081 28.0983 25.7973 28.0392C25.6866 27.98 25.5604 27.9571 25.4361 27.9734C25.3095 27.9572 25.181 27.9812 25.0686 28.0421C24.9561 28.1029 24.8654 28.1976 24.8089 28.3129C24.6903 28.671 24.6395 29.0484 24.6591 29.4254L24.6451 29.4301ZM28.2915 29.4301C28.2915 30.5426 28.0621 31.344 27.6034 31.8437C27.1447 32.3434 26.4191 32.5933 25.4174 32.5933C24.4157 32.5933 23.6855 32.3434 23.2221 31.839C22.7586 31.3346 22.534 30.5332 22.534 29.4301C22.534 28.327 22.7633 27.5445 23.2174 27.0212C23.6714 26.4979 24.4063 26.2716 25.4127 26.2716C26.4191 26.2716 27.1447 26.5215 27.6034 27.0212C28.0621 27.5209 28.2915 28.3223 28.2915 29.4301ZM31.1749 29.4301C31.155 29.8087 31.2058 30.1877 31.3247 30.5473C31.3926 30.6504 31.4848 30.735 31.593 30.7934C31.7012 30.8519 31.8221 30.8825 31.945 30.8825C32.0678 30.8825 32.1887 30.8519 32.2969 30.7934C32.4051 30.735 32.4973 30.6504 32.5652 30.5473C32.6804 30.1852 32.7296 29.8051 32.7103 29.4254C32.7313 29.0459 32.6837 28.6658 32.5699 28.3034C32.5136 28.1906 32.4239 28.0983 32.3132 28.0392C32.2025 27.98 32.0762 27.9571 31.952 27.9734C31.8254 27.9572 31.6969 27.9812 31.5844 28.0421C31.472 28.1029 31.3812 28.1976 31.3247 28.3129C31.2061 28.671 31.1553 29.0484 31.1749 29.4254V29.4301ZM34.8214 29.4301C34.8214 30.5426 34.592 31.344 34.1333 31.8437C33.6746 32.3434 32.949 32.5933 31.9473 32.5933C30.9456 32.5933 30.2154 32.3434 29.7519 31.839C29.2885 31.3346 29.0639 30.5332 29.0639 29.4301C29.0639 28.327 29.2932 27.5445 29.7473 27.0212C30.2013 26.4979 30.9362 26.2716 31.9426 26.2716C32.949 26.2716 33.6746 26.5215 34.1333 27.0212C34.592 27.5209 34.8214 28.3223 34.8214 29.4301ZM39.7878 32.4754H35.7201V26.3989H37.8125V30.7689H39.7878V32.4848V32.4754Z" fill="#0A60FF"/>
</svg>
